<svg xmlns="http://www.w3.org/2000/svg" viewBox="0 0 994.67 128.74"><defs><style>.cls-1{fill:#231f20;}.cls-2{fill:#c90000;}.cls-3{fill:#eb4237;}</style></defs><title>RTT_logo_2</title><g id="Layer_2" data-name="Layer 2"><g id="Layer_4" data-name="Layer 4"><path class="cls-1" d="M92.83,96.09V29.37h28.35q10.69,0,15.54,1.8a15.33,15.33,0,0,1,7.76,6.39,19.22,19.22,0,0,1,2.91,10.51A17.81,17.81,0,0,1,143,60.48q-4.41,4.89-13.2,6.17a31.45,31.45,0,0,1,7.21,5.6,76.15,76.15,0,0,1,7.67,10.83l8.15,13H136.7L127,81.57a94.18,94.18,0,0,0-7.1-9.81A10.35,10.35,0,0,0,115.81,69a22.21,22.21,0,0,0-6.78-.75H106.3V96.09Zm13.47-38.5h10q9.69,0,12.1-.82a7.25,7.25,0,0,0,3.78-2.82,8.69,8.69,0,0,0,1.37-5,8,8,0,0,0-1.8-5.44,8.25,8.25,0,0,0-5.07-2.62q-1.64-.23-9.83-.23H106.3Z"/><path class="cls-1" d="M192.27,96.09V88.85a18.62,18.62,0,0,1-6.94,6.1,19.46,19.46,0,0,1-9.08,2.23A17.75,17.75,0,0,1,167.52,95a12.62,12.62,0,0,1-5.6-6q-1.73-3.87-1.73-10.69V47.76H173V70q0,10.19.71,12.49a6.81,6.81,0,0,0,2.57,3.64A7.9,7.9,0,0,0,181,87.44a10.06,10.06,0,0,0,5.87-1.8,9.14,9.14,0,0,0,3.55-4.46q1-2.66,1-13V47.76h12.79V96.09Z"/><path class="cls-1" d="M213.35,82.3l12.83-2A9.4,9.4,0,0,0,229.51,86a11.22,11.22,0,0,0,7,1.93q5,0,7.46-1.82a4.06,4.06,0,0,0,1.68-3.41,3.36,3.36,0,0,0-.91-2.41q-1-.91-4.28-1.68Q225,75.2,220.86,72.38a12.45,12.45,0,0,1-5.73-10.88,13.4,13.4,0,0,1,5-10.56q5-4.28,15.38-4.28,9.92,0,14.74,3.23a16.52,16.52,0,0,1,6.64,9.56L244.8,61.68a7.46,7.46,0,0,0-2.94-4.32,10.73,10.73,0,0,0-6.17-1.5q-5.05,0-7.24,1.41A3,3,0,0,0,227,59.86a2.83,2.83,0,0,0,1.27,2.32q1.73,1.27,11.95,3.6t14.27,5.69q4,3.41,4,9.51a14.6,14.6,0,0,1-5.55,11.42q-5.55,4.78-16.43,4.78-9.88,0-15.63-4A18.45,18.45,0,0,1,213.35,82.3Z"/><path class="cls-1" d="M265.65,82.3l12.83-2A9.4,9.4,0,0,0,281.81,86a11.22,11.22,0,0,0,7,1.93q5,0,7.46-1.82A4.06,4.06,0,0,0,298,82.71a3.36,3.36,0,0,0-.91-2.41q-1-.91-4.28-1.68-15.47-3.41-19.61-6.23a12.45,12.45,0,0,1-5.73-10.88,13.4,13.4,0,0,1,5-10.56q5-4.28,15.38-4.28,9.92,0,14.75,3.23a16.52,16.52,0,0,1,6.64,9.56L297.1,61.68a7.46,7.46,0,0,0-2.93-4.32,10.73,10.73,0,0,0-6.17-1.5q-5.05,0-7.24,1.41a3,3,0,0,0-1.46,2.59,2.82,2.82,0,0,0,1.27,2.32q1.73,1.27,11.95,3.6t14.27,5.69q4,3.41,4,9.51a14.6,14.6,0,0,1-5.55,11.42q-5.55,4.78-16.43,4.78-9.88,0-15.63-4A18.45,18.45,0,0,1,265.65,82.3Z"/><path class="cls-1" d="M322.46,41.2V29.37h12.79V41.2Zm0,54.88V47.76h12.79V96.09Z"/><path class="cls-1" d="M358.37,62.5l-11.6-2.09q2-7,6.74-10.38t14.2-3.37q8.55,0,12.74,2a12.72,12.72,0,0,1,5.89,5.14Q388,56.95,388,65.28l-.14,14.93a51.76,51.76,0,0,0,.61,9.4,27.37,27.37,0,0,0,2.3,6.48H378.17q-.5-1.27-1.23-3.78-.32-1.14-.46-1.5a23,23,0,0,1-7,4.78,20.08,20.08,0,0,1-8,1.59q-7.46,0-11.76-4.05a13.46,13.46,0,0,1-4.3-10.24,13.74,13.74,0,0,1,2-7.3,12.78,12.78,0,0,1,5.48-4.91,42.85,42.85,0,0,1,10.17-3q9-1.68,12.42-3.14V63.27q0-3.69-1.82-5.26t-6.87-1.57a9.15,9.15,0,0,0-5.32,1.34A9.33,9.33,0,0,0,358.37,62.5Zm17.11,10.38a80,80,0,0,1-7.78,2q-5.32,1.14-7,2.23a5.33,5.33,0,0,0-2.5,4.51,6.27,6.27,0,0,0,2,4.64,7,7,0,0,0,5.1,2,11.07,11.07,0,0,0,6.6-2.28,8,8,0,0,0,3-4.23,25.23,25.23,0,0,0,.5-6.23Z"/><path class="cls-1" d="M445.08,96.09H432.29V71.42q0-7.83-.82-10.13a7.11,7.11,0,0,0-2.66-3.57,7.61,7.61,0,0,0-4.44-1.27,10.26,10.26,0,0,0-6,1.82,9.17,9.17,0,0,0-3.62,4.82q-1,3-1,11.1V96.09H401V47.76H412.9v7.1q6.32-8.19,15.93-8.19a19.19,19.19,0,0,1,7.74,1.52,13,13,0,0,1,5.3,3.89,14.12,14.12,0,0,1,2.5,5.37,40,40,0,0,1,.71,8.6Z"/><path class="cls-2" d="M473.62,96.09V40.66h-19.8V29.37h53V40.66H487.09V96.09Z"/><path class="cls-2" d="M523,96.09H510.22V47.76H522.1v6.87q3-4.87,5.48-6.42a10.09,10.09,0,0,1,5.53-1.55,16.24,16.24,0,0,1,8.42,2.41l-4,11.15a11.23,11.23,0,0,0-6-2.09A7.1,7.1,0,0,0,527,59.61q-1.87,1.48-2.93,5.35T523,81.16Z"/><path class="cls-2" d="M557.06,62.5l-11.6-2.09q2-7,6.74-10.38t14.2-3.37q8.55,0,12.74,2A12.72,12.72,0,0,1,585,53.83q1.71,3.12,1.71,11.45l-.14,14.93a51.76,51.76,0,0,0,.61,9.4,27.37,27.37,0,0,0,2.3,6.48H576.85q-.5-1.27-1.23-3.78-.32-1.14-.46-1.5a23,23,0,0,1-7,4.78,20.08,20.08,0,0,1-8,1.59q-7.46,0-11.76-4.05a13.46,13.46,0,0,1-4.3-10.24,13.74,13.74,0,0,1,2-7.3,12.78,12.78,0,0,1,5.48-4.91,42.85,42.85,0,0,1,10.17-3q9-1.68,12.42-3.14V63.27q0-3.69-1.82-5.26t-6.87-1.57a9.15,9.15,0,0,0-5.32,1.34A9.33,9.33,0,0,0,557.06,62.5Zm17.11,10.38a80,80,0,0,1-7.78,2q-5.32,1.14-7,2.23a5.33,5.33,0,0,0-2.5,4.51,6.27,6.27,0,0,0,2,4.64,7,7,0,0,0,5.1,2,11.07,11.07,0,0,0,6.6-2.28,8,8,0,0,0,3-4.23,25.23,25.23,0,0,0,.5-6.23Z"/><path class="cls-2" d="M599.8,41.2V29.37h12.79V41.2Zm0,54.88V47.76h12.79V96.09Z"/><path class="cls-2" d="M670.12,96.09H657.33V71.42q0-7.83-.82-10.13a7.11,7.11,0,0,0-2.66-3.57,7.61,7.61,0,0,0-4.44-1.27,10.26,10.26,0,0,0-6,1.82,9.17,9.17,0,0,0-3.62,4.82q-1,3-1,11.1V96.09H626.07V47.76h11.88v7.1q6.32-8.19,15.93-8.19a19.19,19.19,0,0,1,7.74,1.52,13,13,0,0,1,5.3,3.89,14.12,14.12,0,0,1,2.5,5.37,40,40,0,0,1,.71,8.6Z"/><path class="cls-1" d="M698.67,96.09V40.66h-19.8V29.37h53V40.66H712.14V96.09Z"/><path class="cls-1" d="M739.27,41.2V29.37h12.79V41.2Zm0,54.88V47.76h12.79V96.09Z"/><path class="cls-1" d="M807.77,62l-12.61,2.28a9.15,9.15,0,0,0-2.89-5.69,8.73,8.73,0,0,0-5.85-1.91A9.55,9.55,0,0,0,778.8,60q-2.84,3.3-2.84,11,0,8.6,2.89,12.15a9.49,9.49,0,0,0,7.76,3.55,8.61,8.61,0,0,0,6-2.07q2.32-2.07,3.28-7.12l12.56,2.14q-2,8.65-7.51,13.06T786,97.18q-10.6,0-16.91-6.69T762.81,72q0-12,6.33-18.64t17.11-6.67q8.83,0,14,3.8T807.77,62Z"/><path class="cls-1" d="M817.47,96.09V29.37h12.79v35.4l15-17H861L844.46,65.41l17.7,30.67H848.37L836.22,74.38l-6,6.23V96.09Z"/><path class="cls-1" d="M898.22,80.7,911,82.84a20.9,20.9,0,0,1-7.76,10.67q-5.3,3.66-13.27,3.66-12.61,0-18.66-8.24-4.78-6.6-4.78-16.66,0-12,6.28-18.82a20.68,20.68,0,0,1,15.88-6.8q10.79,0,17,7.12t6,21.82h-32q.14,5.69,3.09,8.85a9.67,9.67,0,0,0,7.37,3.16A7.83,7.83,0,0,0,895.12,86,10.12,10.12,0,0,0,898.22,80.7Zm.73-12.92q-.14-5.55-2.87-8.44a9.23,9.23,0,0,0-13.56.16q-2.73,3-2.68,8.28Z"/><path class="cls-1" d="M944.69,47.76V58H936V77.43a48.2,48.2,0,0,0,.25,6.89,2.8,2.8,0,0,0,1.14,1.62,3.61,3.61,0,0,0,2.16.64,16.55,16.55,0,0,0,5.14-1.23l1.09,9.92a25.42,25.42,0,0,1-10.1,1.91A16,16,0,0,1,929.4,96a9.1,9.1,0,0,1-4.07-3,11.86,11.86,0,0,1-1.8-5,62.09,62.09,0,0,1-.41-9V58h-5.87V47.76h5.87v-9.6L936,30.69V47.76Z"/><path class="cls-1" d="M949.53,82.3l12.83-2A9.4,9.4,0,0,0,965.68,86a11.22,11.22,0,0,0,7,1.93q5,0,7.46-1.82a4.06,4.06,0,0,0,1.68-3.41,3.36,3.36,0,0,0-.91-2.41q-1-.91-4.28-1.68Q961.17,75.2,957,72.38A12.45,12.45,0,0,1,951.3,61.5a13.4,13.4,0,0,1,5-10.56q5-4.28,15.38-4.28,9.92,0,14.75,3.23A16.52,16.52,0,0,1,993,59.45L981,61.68A7.46,7.46,0,0,0,978,57.36a10.73,10.73,0,0,0-6.17-1.5q-5.05,0-7.24,1.41a3,3,0,0,0-1.46,2.59,2.82,2.82,0,0,0,1.27,2.32q1.73,1.27,11.95,3.6t14.27,5.69q4,3.41,4,9.51a14.6,14.6,0,0,1-5.55,11.42q-5.55,4.78-16.43,4.78-9.88,0-15.63-4A18.45,18.45,0,0,1,949.53,82.3Z"/><path class="cls-1" d="M105.91,128.35c-4.33-1.21-7.39-1.94-11.38-4.4-8-4.92-15.51-10.53-23.33-15.7-5-3.31-7-4.38-7.93-13.78s-1.81-19-2.65-28.51c-.54-6.07-3.62-10.24-9-12.94-6.13-3.08-12.14-6.42-18.33-9.36C18.4,36.59,8.4,25.3,3.29,9.65c-.93-2.86-2-5.67-3-8.51C.24,1.07-.16-.07.07,0A40,40,0,0,1,4.68,3C26.83,20,69.75,47.79,72,51.25c.88,11.69,2.16,27.18,3,38.87.47,6.42,4.05,11.71,8.87,15.89,8.3,7.21,14.94,13.19,23,20.63C109,128.64,109,129.21,105.91,128.35Z"/><path class="cls-3" d="M57.17,82C43.94,77.54,33.35,74.59,25,69.2,12.31,61,4.89,49.46,1.19,34l0-.21s1.43.54,2,.83C18.07,42.05,33,49.51,47.9,57.08c5,2.54,7.48,6.81,8,12.43C56.27,73.62,56.27,73.62,57.17,82Z"/><path class="cls-1" d="M58.43,100.76c-8.89-2.9-17.32-5.1-25.23-8.5-3.31-1.42-6.25-5-8.12-8.29a40.23,40.23,0,0,1-4.54-11.13C30.74,77.46,41.14,81.71,51,86.9,55.81,89.39,58.16,94.41,58.43,100.76Z"/></g></g></svg>