<svg id="f_hover" data-name="f hover" xmlns="http://www.w3.org/2000/svg" width="37" height="37" viewBox="0 0 37 37">
  <metadata><?xpacket begin="﻿" id="W5M0MpCehiHzreSzNTczkc9d"?>
<x:xmpmeta xmlns:x="adobe:ns:meta/" x:xmptk="Adobe XMP Core 5.6-c138 79.159824, 2016/09/14-01:09:01        ">
   <rdf:RDF xmlns:rdf="http://www.w3.org/1999/02/22-rdf-syntax-ns#">
      <rdf:Description rdf:about=""/>
   </rdf:RDF>
</x:xmpmeta>
                                                                                                    
                                                                                                    
                                                                                                    
                                                                                                    
                                                                                                    
                                                                                                    
                                                                                                    
                                                                                                    
                                                                                                    
                                                                                                    
                                                                                                    
                                                                                                    
                                                                                                    
                                                                                                    
                                                                                                    
                                                                                                    
                                                                                                    
                                                                                                    
                                                                                                    
                                                                                                    
                           
<?xpacket end="w"?></metadata>
<defs>
    <style>
      .cls-1 {
        fill: #ffae00;
        fill-rule: evenodd;
      }

      .cls-2 {
        fill: none;
        stroke: #ffae00;
        stroke-width: 1px;
      }
    </style>
  </defs>
  <path class="cls-1" d="M1209.66,750l-2.16,0a3.834,3.834,0,0,0-3.99,4.183v1.929h-2.17a0.343,0.343,0,0,0-.34.347v2.8a0.342,0.342,0,0,0,.34.347h2.17v7.052a0.342,0.342,0,0,0,.34.347h2.83a0.342,0.342,0,0,0,.34-0.347V759.6h2.54a0.342,0.342,0,0,0,.34-0.347v-2.8a0.367,0.367,0,0,0-.1-0.245,0.33,0.33,0,0,0-.24-0.1h-2.54v-1.635a0.977,0.977,0,0,1,1.19-1.185h1.45a0.343,0.343,0,0,0,.34-0.347v-2.6A0.343,0.343,0,0,0,1209.66,750Z" transform="translate(-1186.5 -739.5)"/>
  <circle id="Ellipse_3_copy_5" data-name="Ellipse 3 copy 5" class="cls-2" cx="18.5" cy="18.5" r="18"/>
</svg>
