<svg id="G_hover" data-name="G+ hover" xmlns="http://www.w3.org/2000/svg" width="37" height="37" viewBox="0 0 37 37">
  <metadata><?xpacket begin="﻿" id="W5M0MpCehiHzreSzNTczkc9d"?>
<x:xmpmeta xmlns:x="adobe:ns:meta/" x:xmptk="Adobe XMP Core 5.6-c138 79.159824, 2016/09/14-01:09:01        ">
   <rdf:RDF xmlns:rdf="http://www.w3.org/1999/02/22-rdf-syntax-ns#">
      <rdf:Description rdf:about=""/>
   </rdf:RDF>
</x:xmpmeta>
                                                                                                    
                                                                                                    
                                                                                                    
                                                                                                    
                                                                                                    
                                                                                                    
                                                                                                    
                                                                                                    
                                                                                                    
                                                                                                    
                                                                                                    
                                                                                                    
                                                                                                    
                                                                                                    
                                                                                                    
                                                                                                    
                                                                                                    
                                                                                                    
                                                                                                    
                                                                                                    
                           
<?xpacket end="w"?></metadata>
<defs>
    <style>
      .cls-1 {
        fill: none;
        stroke: #ffae00;
        stroke-width: 1px;
      }

      .cls-2 {
        fill: #ffae00;
        fill-rule: evenodd;
      }
    </style>
  </defs>
  <circle id="Ellipse_3_copy_6" data-name="Ellipse 3 copy 6" class="cls-1" cx="18.5" cy="18.5" r="18"/>
  <path class="cls-2" d="M1294.07,760.047h3.59a4.581,4.581,0,1,1-4.3-6.2,4.484,4.484,0,0,1,3.06,1.208,0.5,0.5,0,0,0,.68,0l1.32-1.267a0.52,0.52,0,0,0,0-.731A7.274,7.274,0,0,0,1293.5,751a7.5,7.5,0,1,0,7.2,7.921c0.01-.05.01-1.722,0.01-1.722h-6.64a0.5,0.5,0,0,0-.49.5v1.841A0.5,0.5,0,0,0,1294.07,760.047Zm12.73-2.68v-1.8a0.434,0.434,0,0,0-.43-0.441h-1.49a0.441,0.441,0,0,0-.43.441v1.8h-1.76a0.443,0.443,0,0,0-.44.441v1.514a0.442,0.442,0,0,0,.44.441h1.76v1.8a0.441,0.441,0,0,0,.43.441h1.49a0.434,0.434,0,0,0,.43-0.441v-1.8h1.77a0.434,0.434,0,0,0,.43-0.441v-1.514a0.434,0.434,0,0,0-.43-0.441h-1.77Z" transform="translate(-1278.5 -739.5)"/>
</svg>
