<?xml version="1.0" encoding="utf-8"?>
<!DOCTYPE svg PUBLIC "-//W3C//DTD SVG 1.1//EN" "http://www.w3.org/Graphics/SVG/1.1/DTD/svg11.dtd">
<svg version="1.1" id="Ebene_1" xmlns="http://www.w3.org/2000/svg" xmlns:xlink="http://www.w3.org/1999/xlink" x="0px" y="0px"
	 width="283.46px" height="88.15px" viewBox="0 0 283.46 88.15" enable-background="new 0 0 283.46 88.15" xml:space="preserve">
<g transform="matrix(0.99521638,0,0,0.99521638,-2.358086,13.634514)" id="g3">
    <path style="fill:#ef7d00" id="path5" d="m 236.8,4.7 c 1,0.8 1.8,1.7 2.5,2.7 1.8,2.6 2.5,5.7 2.1,9.2 l 9.2,0 -13.8,38 13.8,0 13.8,-38 17.7,0 4.3,-11.8 -49.6,0 z"/>
    <g id="g7">
        <path style="fill:#ef7d00" id="path9" d="M 236.1,9.6 C 233.8,6.3 229.2,4.7 222,4.7 l -16.8,0 -18.1,49.8 15.4,0 6.6,-17.5 c 0.3,0.7 4.2,17.5 4.2,17.5 l 16.2,0 c 0,0 -2.9,-12.4 -5.1,-17.3 -0.6,-1.3 -1.1,-2.7 -1.9,-3.9 4.6,-1.7 11.2,-5.3 13.9,-12.7 1.7,-4.6 1.6,-8.3 -0.3,-11 z m -13.4,11 c -1.5,4 -4.1,6.4 -9.2,6.4 0,0 0,0 0,0 l -2.6,0 4.5,-12 2.5,0 c 4.7,0 6.4,1.4 4.8,5.6 z"/>
    </g>
    <g id="g11">
        <g id="g13">
            <g id="g15">
                <path style="fill:#ef7d00" id="path17" d="m 81.4,4.7 -28.6,0 c -4.5,0 -8.9,0 -12.8,2 -3.9,2 -7.4,6 -10,13.9 -0.6,1.7 -0.9,3.2 -0.9,4.5 0,1.3 0.2,2.4 0.7,3.3 0.6,1.2 1.6,2.2 2.8,3.2 1.2,0.9 2.7,1.7 4.2,2.1 0.1,0 0.9,0.3 1.9,0.5 1,0.3 2.2,0.6 2.9,0.9 0.4,0.1 0.9,0.3 1.3,0.6 0.4,0.3 0.8,0.6 1.1,1.1 0.2,0.3 0.2,0.7 0.3,1 0,0.4 -0.1,0.8 -0.2,1.2 -0.4,1.1 -0.9,1.8 -2,2.2 -1.1,0.4 -2.6,0.6 -5,0.6 l -29.5,0 -4.6,12.7 31.5,0 c 3,0 8.4,0 13.6,-2.2 5.2,-2.2 10.2,-6.6 12.3,-15.5 0.8,-3.3 0.5,-6 -0.8,-8.1 -1.3,-2.1 -3.7,-3.7 -7.1,-4.7 0,0 -0.8,-0.2 -1.7,-0.5 -0.9,-0.3 -1.9,-0.6 -2.5,-0.7 -0.9,-0.3 -1.6,-0.8 -2,-1.4 -0.4,-0.6 -0.5,-1.4 -0.3,-2.2 0.2,-0.8 0.8,-1.5 1.6,-2 0.8,-0.5 1.9,-0.7 3.2,-0.7 l 18.3,0 c 0.1,-0.2 0.2,-0.4 0.4,-0.6 3.4,-4.7 7.4,-8.5 11.9,-11.2 z"/>
            </g>
            <g id="g19">
                <path style="fill:#ef7d00" id="path21" d="M 109.4,9.4 C 106.9,5.8 102.7,4 96.7,4 92.8,4 89.1,4.9 85.5,6.6 80.5,9 75.9,13 72.1,18.3 c -2.4,3.4 -4.5,7.4 -6.1,11.9 -3.1,8.4 -3,15.2 0.1,19.7 1.8,2.5 5.5,5.6 13,5.6 l 0,0 c 13.7,0 23.9,-9 30.4,-26.7 1.8,-4.8 4,-13.5 -0.1,-19.4 z m -14.6,20 C 90.5,41.1 87.4,44 82.7,44 c 0,0 0,0 0,0 -4.5,0 -6.1,-2.9 -1.9,-14.5 3.2,-8.7 7.3,-14.2 12.3,-14.2 l 0,0 c 4.7,0 5.8,2.7 1.7,14.1 z"/>
            </g>
        </g>
        <g id="g23">
            <g id="g25">
                <path style="fill:#ef7d00" id="path27" d="m 164.1,4.7 -29.1,0 c -8.1,0 -14.2,4.1 -17.1,11.8 l -13.8,38 15.1,0 7.1,-19.5 13.4,0 3.8,-10.5 -13.3,0 2.1,-6.1 c 0.4,-1.1 1.5,-1.9 3.1,-1.9 0.9,0 10.7,0 15.8,0 0.1,-0.2 0.2,-0.4 0.4,-0.6 3.3,-4.7 8.1,-8.5 12.5,-11.2 z"/>
            </g>
            <g id="g29">
                <path style="fill:#ef7d00" id="path31" d="M 192,9.4 C 189.5,5.8 185.3,4 179.3,4 c -3.9,0 -7.6,0.9 -11.2,2.6 -5,2.4 -9.6,6.4 -13.4,11.7 -2.4,3.4 -4.5,7.4 -6.1,11.9 -3.1,8.4 -3,15.2 0.1,19.7 1.8,2.5 5.5,5.6 13,5.6 l 0,0 c 13.7,0 23.9,-9 30.4,-26.7 1.8,-4.8 4,-13.5 -0.1,-19.4 z m -14.7,20 c -4.3,11.7 -7.4,14.6 -12,14.6 0,0 0,0 0,0 -4.5,0 -6.1,-2.9 -1.9,-14.5 3.2,-8.7 7.3,-14.2 12.3,-14.2 0,0 0,0 0,0 4.7,0 5.8,2.7 1.6,14.1 z"/>
            </g>
        </g>
    </g>
</g>
</svg>
