<svg id="t_hover" data-name="t hover" xmlns="http://www.w3.org/2000/svg" width="37" height="37" viewBox="0 0 37 37">
  <metadata><?xpacket begin="﻿" id="W5M0MpCehiHzreSzNTczkc9d"?>
<x:xmpmeta xmlns:x="adobe:ns:meta/" x:xmptk="Adobe XMP Core 5.6-c138 79.159824, 2016/09/14-01:09:01        ">
   <rdf:RDF xmlns:rdf="http://www.w3.org/1999/02/22-rdf-syntax-ns#">
      <rdf:Description rdf:about=""/>
   </rdf:RDF>
</x:xmpmeta>
                                                                                                    
                                                                                                    
                                                                                                    
                                                                                                    
                                                                                                    
                                                                                                    
                                                                                                    
                                                                                                    
                                                                                                    
                                                                                                    
                                                                                                    
                                                                                                    
                                                                                                    
                                                                                                    
                                                                                                    
                                                                                                    
                                                                                                    
                                                                                                    
                                                                                                    
                                                                                                    
                           
<?xpacket end="w"?></metadata>
<defs>
    <style>
      .cls-1 {
        fill: #ffae00;
        fill-rule: evenodd;
      }

      .cls-2 {
        fill: none;
        stroke: #ffae00;
        stroke-width: 1px;
      }
    </style>
  </defs>
  <path class="cls-1" d="M1261,752.775a7.178,7.178,0,0,1-2.12.6,3.762,3.762,0,0,0,1.62-2.094,7.263,7.263,0,0,1-2.34.92,3.664,3.664,0,0,0-2.7-1.2,3.738,3.738,0,0,0-3.69,3.787,4.075,4.075,0,0,0,.09.863,10.427,10.427,0,0,1-7.61-3.958,3.927,3.927,0,0,0-.5,1.9,3.82,3.82,0,0,0,1.65,3.153,3.643,3.643,0,0,1-1.68-.476v0.048a3.773,3.773,0,0,0,2.97,3.714,3.669,3.669,0,0,1-.98.133,3.363,3.363,0,0,1-.69-0.07,3.706,3.706,0,0,0,3.45,2.631,7.319,7.319,0,0,1-4.59,1.619,7.731,7.731,0,0,1-.88-0.052,10.23,10.23,0,0,0,5.66,1.7c6.79,0,10.51-5.772,10.51-10.778l-0.02-.49A7.365,7.365,0,0,0,1261,752.775Z" transform="translate(-1232.5 -739.5)"/>
  <circle id="Ellipse_3_copy_5" data-name="Ellipse 3 copy 5" class="cls-2" cx="18.5" cy="18.5" r="18"/>
</svg>
